<svg width="20" height="20" fill="none" xmlns="http://www.w3.org/2000/svg"><path d="M0 10C0 4.477 4.477 0 10 0s10 4.477 10 10-4.477 10-10 10S0 15.523 0 10z" fill="url(#a)"/><path d="m11.805 7.566 2.39.235c.831.081 1.086.912.444 1.458l-1.87 1.591.694 2.592c.228.851-.48 1.366-1.189.854l-2.273-1.643-2.273 1.643c-.706.51-1.417-.003-1.188-.854l.694-2.592-1.87-1.59c-.646-.549-.392-1.377.443-1.46l2.39-.234 1.052-2.483c.33-.778 1.174-.777 1.504 0l1.052 2.483z" fill="#fff"/><defs><linearGradient id="a" x1="-10" y1="10" x2="10" y2="30" gradientUnits="userSpaceOnUse"><stop stop-color="#50C750"/><stop offset="1" stop-color="#32B332"/></linearGradient></defs></svg>